<svg width="32" height="32" viewBox="0 0 32 32" fill="none" xmlns="http://www.w3.org/2000/svg">
<path d="M6.19531 6.91725C6.19531 6.79477 6.19531 6.67685 6.19531 6.55438C6.26335 6.52714 6.24067 6.46362 6.24067 6.41832C6.2452 6.00553 6.34046 5.61094 6.46293 5.22083C6.85756 3.95528 7.64227 2.95743 8.65831 2.13639C9.35684 1.5694 10.1416 1.13395 10.9807 0.807366C12.2009 0.331094 13.4664 0.081626 14.7728 0.0317259C15.1673 0.0181204 15.5665 0.0362634 15.9657 0.0634824C16.6461 0.104299 17.3128 0.204091 17.966 0.362851C18.9321 0.598714 19.8484 0.966126 20.7103 1.47868C21.4859 1.93681 22.1844 2.4947 22.7514 3.18872C23.4681 4.06872 23.9579 5.05754 24.0804 6.2142C24.1394 6.79477 24.1122 7.36176 23.9942 7.92875C23.7675 9.00832 23.2186 9.92004 22.4702 10.7229C22.4067 10.7909 22.3886 10.8363 22.4203 10.9361C22.7968 12.0791 23.4409 12.9908 24.5703 13.4989C24.5204 13.5941 24.4343 13.5397 24.3662 13.5397C20.9416 13.5442 17.5169 13.5442 14.0923 13.5442C13.8837 13.4762 13.6614 13.4853 13.4437 13.449C12.5003 13.2993 11.584 13.0543 10.704 12.6688C9.42489 12.1109 8.29998 11.3352 7.44269 10.2194C6.72601 9.28954 6.26789 8.25079 6.2452 7.0533C6.24067 7.008 6.26335 6.94449 6.19531 6.91725ZM17.8435 7.86979C18.2518 7.86979 18.66 7.86524 19.0683 7.87434C19.2089 7.8789 19.2633 7.84255 19.2633 7.68836C19.2542 7.0851 19.2542 6.47728 19.2633 5.87402C19.2678 5.71975 19.2134 5.68804 19.0683 5.68804C18.2608 5.69259 17.449 5.68804 16.6415 5.69259C16.4828 5.69259 16.4374 5.65177 16.4419 5.49294C16.451 4.69922 16.4419 3.90542 16.4465 3.11162C16.4465 2.97101 16.4148 2.91661 16.2605 2.91661C15.6391 2.92564 15.0222 2.92564 14.4008 2.91661C14.2466 2.91661 14.2148 2.96646 14.2148 3.11162C14.2194 3.90542 14.2148 4.69922 14.2194 5.49294C14.2194 5.65177 14.1785 5.69707 14.0198 5.69259C13.226 5.68348 12.4322 5.69259 11.6384 5.68804C11.4978 5.68804 11.4434 5.71975 11.4434 5.87402C11.4525 6.47728 11.4525 7.0851 11.4434 7.68836C11.4388 7.84255 11.4932 7.87434 11.6384 7.87434C12.4322 7.86979 13.226 7.87434 14.0198 7.86979C14.1785 7.86979 14.2239 7.91061 14.2194 8.06936C14.2102 8.85405 14.2194 9.6433 14.2102 10.4281C14.2102 10.5914 14.242 10.6503 14.4189 10.6458C15.0222 10.6322 15.63 10.6322 16.2333 10.6458C16.4102 10.6503 16.4419 10.5914 16.4419 10.4281C16.4329 9.63427 16.4419 8.84047 16.4329 8.04667C16.4329 7.90606 16.4692 7.86524 16.6098 7.86979C17.0271 7.87434 17.4353 7.86979 17.8435 7.86979Z" fill="white"/>
</svg>
